{
  "accessors": [
    {
      "bufferView": 2,
      "componentType": 5126,
      "count": 24011,
      "max": [
        72.03296661376953,
        120.36872863769531,
        99.9263916015625
      ],
      "min": [
        -58.47863006591797,
        -30.07625961303711,
        -97.18975067138672
      ],
      "type": "VEC3"
    },
    {
      "bufferView": 2,
      "byteOffset": 288132,
      "componentType": 5126,
      "count": 24011,
      "max": [
        0.9999601244926453,
        0.9999906420707703,
        0.9999125003814697
      ],
      "min": [
        -0.9999507069587708,
        -0.9999876618385315,
        -0.9999999403953552
      ],
      "type": "VEC3"
    },
    {
      "bufferView": 1,
      "componentType": 5126,
      "count": 24011,
      "max": [
        0.9793000221252441,
        0.999809980392456
      ],
      "min": [
        0.0001900000061141327,
        0.0001900000061141327
      ],
      "type": "VEC2"
    },
    {
      "bufferView": 0,
      "componentType": 5125,
      "count": 139992,
      "type": "SCALAR"
    }
  ],
  "asset": {
    "extras": {
      "author": "1d_inc (https://sketchfab.com/1d_inc)",
      "license": "CC-BY-4.0 (http://creativecommons.org/licenses/by/4.0/)",
      "source": "https://sketchfab.com/3d-models/david-head-39a4d01bef37495cac8d8f0009728871",
      "title": "David Head"
    },
    "generator": "Sketchfab-15.33.0",
    "version": "2.0"
  },
  "bufferViews": [
    {
      "buffer": 0,
      "byteLength": 559968,
      "name": "floatBufferViews",
      "target": 34963
    },
    {
      "buffer": 0,
      "byteLength": 192088,
      "byteOffset": 559968,
      "byteStride": 8,
      "name": "floatBufferViews",
      "target": 34962
    },
    {
      "buffer": 0,
      "byteLength": 576264,
      "byteOffset": 752056,
      "byteStride": 12,
      "name": "floatBufferViews",
      "target": 34962
    }
  ],
  "buffers": [
    {
      "byteLength": 1328320,
      "uri": "scene.bin"
    }
  ],
  "materials": [
    {
      "doubleSided": true,
      "name": "Scene_-_Root",
      "pbrMetallicRoughness": {
        "baseColorFactor": [
          0.539777445607042,
          0.539777445607042,
          0.539777445607042,
          1.0
        ],
        "metallicFactor": 0.0,
        "roughnessFactor": 0.6
      }
    }
  ],
  "meshes": [
    {
      "name": "David head by 1D_0",
      "primitives": [
        {
          "attributes": {
            "NORMAL": 1,
            "POSITION": 0,
            "TEXCOORD_0": 2
          },
          "indices": 3,
          "material": 0,
          "mode": 4
        }
      ]
    }
  ],
  "nodes": [
    {
      "children": [
        1
      ],
      "matrix": [
        1.0,
        0.0,
        0.0,
        0.0,
        0.0,
        2.220446049250313e-16,
        -1.0,
        0.0,
        0.0,
        1.0,
        2.220446049250313e-16,
        0.0,
        0.0,
        0.0,
        0.0,
        1.0
      ],
      "name": "Sketchfab_model"
    },
    {
      "children": [
        2
      ],
      "name": "Root"
    },
    {
      "children": [
        3
      ],
      "matrix": [
        1.0,
        0.0,
        0.0,
        0.0,
        0.0,
        1.0,
        0.0,
        0.0,
        0.0,
        0.0,
        1.0,
        0.0,
        -0.24123000000000003,
        -29.320980000000002,
        97.60269,
        1.0
      ],
      "name": "David head by 1D"
    },
    {
      "mesh": 0,
      "name": "David head by 1D_0"
    }
  ],
  "scene": 0,
  "scenes": [
    {
      "name": "Sketchfab_Scene",
      "nodes": [
        0
      ]
    }
  ]
}
